<svg xmlns="http://www.w3.org/2000/svg" xmlns:xlink="http://www.w3.org/1999/xlink" width="1233" zoomAndPan="magnify" viewBox="0 0 924.75 114.749999" height="153" preserveAspectRatio="xMidYMid meet" version="1.0"><defs><clipPath id="7a9737b6fc"><path d="M 0.878906 49 L 350 49 L 350 114.5 L 0.878906 114.5 Z M 0.878906 49 " clip-rule="nonzero"/></clipPath><clipPath id="58112584d0"><path d="M 0.878906 33.769531 L 923.621094 33.769531 L 923.621094 83 L 0.878906 83 Z M 0.878906 33.769531 " clip-rule="nonzero"/></clipPath><clipPath id="8a5f4ae591"><path d="M 304 91 L 345 91 L 345 114.5 L 304 114.5 Z M 304 91 " clip-rule="nonzero"/></clipPath><clipPath id="991625768a"><path d="M 338 91 L 380 91 L 380 114.5 L 338 114.5 Z M 338 91 " clip-rule="nonzero"/></clipPath><clipPath id="97bd0c28bd"><path d="M 554.824219 57 L 919 57 L 919 114.5 L 554.824219 114.5 Z M 554.824219 57 " clip-rule="nonzero"/></clipPath><clipPath id="c6b20162f8"><path d="M 902 48.101562 L 923.621094 48.101562 L 923.621094 70 L 902 70 Z M 902 48.101562 " clip-rule="nonzero"/></clipPath></defs><g clip-path="url(#7a9737b6fc)"><path fill="#545454" d="M 0.878906 114.445312 L 281.957031 114.445312 L 349.214844 49.867188 L 0.878906 49.867188 Z M 0.878906 114.445312 " fill-opacity="1" fill-rule="nonzero"/></g><g clip-path="url(#58112584d0)"><path fill="#0d1f28" d="M 450.007812 82.15625 L 483.851562 49.660156 L 923.871094 49.660156 L 923.871094 33.949219 L 0.878906 33.949219 L 0.878906 82.15625 Z M 450.007812 82.15625 " fill-opacity="1" fill-rule="nonzero"/></g><g clip-path="url(#8a5f4ae591)"><path fill="#000000" d="M 344.921875 91.859375 L 323.402344 114.445312 L 304.328125 114.445312 L 325.847656 91.859375 Z M 344.921875 91.859375 " fill-opacity="1" fill-rule="nonzero"/></g><g clip-path="url(#991625768a)"><path fill="#000000" d="M 379.53125 91.859375 L 358.011719 114.445312 L 338.9375 114.445312 L 360.457031 91.859375 Z M 379.53125 91.859375 " fill-opacity="1" fill-rule="nonzero"/></g><g clip-path="url(#97bd0c28bd)"><path fill="#737373" d="M 918.953125 57.585938 L 918.953125 59.878906 L 612.742188 59.878906 L 558.117188 114.667969 L 554.867188 114.667969 L 611.804688 57.585938 Z M 918.953125 57.585938 " fill-opacity="1" fill-rule="nonzero"/></g><g clip-path="url(#c6b20162f8)"><path fill="#737373" d="M 923.847656 58.734375 C 923.847656 59.429688 923.777344 60.121094 923.640625 60.804688 C 923.507812 61.488281 923.304688 62.152344 923.039062 62.796875 C 922.773438 63.441406 922.449219 64.050781 922.0625 64.632812 C 921.675781 65.210938 921.238281 65.75 920.746094 66.242188 C 920.253906 66.734375 919.71875 67.175781 919.140625 67.5625 C 918.5625 67.949219 917.953125 68.277344 917.308594 68.542969 C 916.667969 68.808594 916.007812 69.011719 915.324219 69.148438 C 914.644531 69.285156 913.953125 69.351562 913.257812 69.351562 C 912.5625 69.351562 911.875 69.285156 911.195312 69.148438 C 910.511719 69.011719 909.851562 68.808594 909.207031 68.542969 C 908.566406 68.277344 907.957031 67.949219 907.378906 67.5625 C 906.800781 67.175781 906.265625 66.734375 905.773438 66.242188 C 905.28125 65.75 904.84375 65.210938 904.457031 64.632812 C 904.070312 64.050781 903.746094 63.441406 903.476562 62.796875 C 903.210938 62.152344 903.011719 61.488281 902.875 60.804688 C 902.742188 60.121094 902.671875 59.429688 902.671875 58.734375 C 902.671875 58.035156 902.742188 57.34375 902.875 56.660156 C 903.011719 55.976562 903.210938 55.3125 903.476562 54.667969 C 903.746094 54.027344 904.070312 53.414062 904.457031 52.832031 C 904.84375 52.253906 905.28125 51.71875 905.773438 51.226562 C 906.265625 50.730469 906.800781 50.292969 907.378906 49.902344 C 907.957031 49.515625 908.566406 49.191406 909.207031 48.921875 C 909.851562 48.65625 910.511719 48.453125 911.195312 48.320312 C 911.875 48.183594 912.5625 48.113281 913.257812 48.113281 C 913.953125 48.113281 914.644531 48.183594 915.324219 48.320312 C 916.007812 48.453125 916.667969 48.65625 917.308594 48.921875 C 917.953125 49.191406 918.5625 49.515625 919.140625 49.902344 C 919.71875 50.292969 920.253906 50.730469 920.746094 51.226562 C 921.238281 51.71875 921.675781 52.253906 922.0625 52.832031 C 922.449219 53.414062 922.773438 54.027344 923.039062 54.667969 C 923.304688 55.3125 923.507812 55.976562 923.640625 56.660156 C 923.777344 57.34375 923.847656 58.035156 923.847656 58.734375 Z M 923.847656 58.734375 " fill-opacity="1" fill-rule="nonzero"/></g><path fill="#737373" d="M 609.746094 88.363281 L 583.863281 88.363281 L 583.863281 86.070312 L 608.785156 86.070312 L 628.289062 66.507812 L 853.285156 66.507812 L 861.675781 58.089844 L 863.296875 59.71875 L 854.242188 68.800781 L 629.226562 68.800781 Z M 609.746094 88.363281 " fill-opacity="1" fill-rule="nonzero"/></svg>